<?xml version="1.0" encoding="utf-8"?>
<!-- Generator: Adobe Illustrator 15.1.0, SVG Export Plug-In . SVG Version: 6.00 Build 0)  -->
<!DOCTYPE svg PUBLIC "-//W3C//DTD SVG 1.0//EN" "http://www.w3.org/TR/2001/REC-SVG-20010904/DTD/svg10.dtd">
<svg version="1.0" xmlns="http://www.w3.org/2000/svg" xmlns:xlink="http://www.w3.org/1999/xlink" x="0px" y="0px" width="44px"
	 height="44px" viewBox="0 0 44 44" enable-background="new 0 0 44 44" xml:space="preserve">
<g id="ico-expand-v" display="none">
	<line display="inline" fill="none" stroke="#272525" stroke-miterlimit="10" x1="21.5" y1="10" x2="21.5" y2="34"/>
	<polyline display="inline" fill="none" stroke="#272525" stroke-miterlimit="10" points="29,17.5 21.5,10 13.99,17.49 	"/>
	<polyline display="inline" fill="none" stroke="#272525" stroke-miterlimit="10" points="14,26.5 21.5,34 29,26.5 	"/>
</g>
<g id="ico-expand" display="none">
	<g display="inline">
		<line fill="none" stroke="#272525" stroke-miterlimit="10" x1="10" y1="21.5" x2="34" y2="21.5"/>
		<polyline fill="none" stroke="#272525" stroke-miterlimit="10" points="17,13.99 9.5,21.49 16.99,29 		"/>
		<polyline fill="none" stroke="#272525" stroke-miterlimit="10" points="26.5,29 34,21.5 26.5,14 		"/>
	</g>
</g>
<g id="ico-collapse" display="none">
	<polyline display="inline" fill="none" stroke="#272525" stroke-miterlimit="10" points="29,34 21.5,26.5 13.99,33.99 	"/>
	<polyline display="inline" fill="none" stroke="#272525" stroke-miterlimit="10" points="14,10 21.5,17.5 29,10 	"/>
</g>
<g id="ico-close" display="none">
	<g display="inline">
		<polyline fill="none" stroke="#272525" stroke-miterlimit="10" points="29,29 21.5,21.5 13.99,28.99 		"/>
		<polyline fill="none" stroke="#272525" stroke-miterlimit="10" points="14,14 21.5,21.5 29,14 		"/>
	</g>
</g>
<g id="ico-prev" display="none">
	<polyline display="inline" fill="none" stroke="#000000" stroke-miterlimit="10" points="25.75,14.5 18.25,22 25.74,29.5 	"/>
</g>
<g id="ico-next">
	<polyline fill="none" stroke="#000000" stroke-miterlimit="10" points="18.25,14.5 25.75,22 18.26,29.5 	"/>
</g>
<g id="Layer_4">
</g>
</svg>
