<?xml version="1.0" encoding="utf-8"?>
<!-- Generator: Adobe Illustrator 16.0.0, SVG Export Plug-In . SVG Version: 6.00 Build 0)  -->
<!DOCTYPE svg PUBLIC "-//W3C//DTD SVG 1.1//EN" "http://www.w3.org/Graphics/SVG/1.1/DTD/svg11.dtd">
<svg version="1.1" id="Layer_1" xmlns="http://www.w3.org/2000/svg" xmlns:xlink="http://www.w3.org/1999/xlink" x="0px" y="0px"
	 viewBox="0 0 94 44" enable-background="new 0 0 94 44" xml:space="preserve">
<g>
	<g>
		<path fill="#FFFFFF" d="M41.2,33.7c-5.4,0-7.9-3.3-7.9-8.9v-3c0-5.7,2.5-8.8,7.9-8.8c2.6,0,4.9,0.4,5.6,0.7V18h-2.5l-0.3-2
			c-0.7-0.1-1.8-0.1-2.3-0.1c-3.1,0-5.1,1.2-5.1,6.1v3c0,4.9,2,6.1,5.1,6.1c1,0,2.8-0.1,5.2-0.4v2.4C46.1,33.3,44,33.7,41.2,33.7z"
			/>
		<path fill="#FFFFFF" d="M72.6,33.2V20.2c0-2.8,0-4.4-2.9-4.4c-1.4,0-3.3,0.6-5,1.6c0.1,0.9,0.1,1.9,0.1,2.7v13.1h-3.2V20.2
			c0-2.8,0-4.4-2.7-4.4c-1.7,0-3.7,0.9-5.1,1.7v12.9l1.9,0.2v2.6h-7v-2.6l1.9-0.2V16.4l-1.9-0.2v-2.6h5.1v1.5c1.6-1.2,3.6-2,5.9-2
			c2.3,0,3.6,0.8,4.3,2.1c2.3-1.5,4.3-2.1,6.1-2.1c5.7,0,5.7,4.1,5.7,7.1v10.3l1.9,0.2v2.6H72.6z"/>
		<path fill="#FFFFFF" d="M85.7,33.7c-2.8,0-5.8-0.6-6.4-0.8v-4.6h2.5l0.4,2.5c1.1,0.1,2.3,0.1,3.5,0.1c3.4,0,4.2-0.9,4.2-2.6
			c0-1.8-0.6-2.3-4-3.7L84.4,24c-3.8-1.6-5.4-3.2-5.4-6c0-3.3,2.2-4.9,7.1-4.9c2.6,0,5.5,0.5,6.2,0.7V18h-2.5l-0.4-2
			c-1-0.1-2.5-0.1-3.2-0.1c-2.9,0-4,0.4-4,2.1c0,1.5,0.6,2.2,3.4,3.4l1.4,0.6c4.6,2,5.9,3.3,5.9,6.3C93,31.1,91.5,33.7,85.7,33.7z"
			/>
	</g>
	<g>
		<path fill="#F15A29" d="M26.2,18.3c-3.7,0-5.8-2-5.8-5.7v-1.2c0-3.7,2-5.7,5.8-5.7c3.7,0,5.8,1.9,5.8,5.7v1.2
			C31.9,16.3,29.9,18.3,26.2,18.3z M29.3,11.4c0-2.5-0.9-3.5-3.1-3.5c-2.2,0-3.1,1-3.1,3.5v1.2c0,2.5,0.9,3.5,3.1,3.5
			c2.2,0,3.1-1,3.1-3.5V11.4z"/>
	</g>
	<g>
		<path fill="#FFFFFF" d="M14.6,33.2V20.7c0-3.6-0.6-4.9-3.3-4.9c-1.5,0-3.6,0.6-6.2,1.8v12.9l1.9,0.2v2.6H0v-2.6L2,30.4V16.4
			L0,16.2v-2.6h5.1v1.5c2.3-1.2,4.4-2,6.5-2c5.2,0,6.2,2.8,6.2,7.6v9.8l1.9,0.2v2.6H14.6z"/>
	</g>
</g>
</svg>
